<svg preserveAspectRatio="none" overflow="visible" style="display: block;" width="58.8613" height="123.001" viewBox="0 0 58.8613 123.001" fill="none" xmlns="http://www.w3.org/2000/svg">
<g id="Group">
<path id="Vector" d="M3.72873 106.832C-0.853359 111.083 -0.0531159 114.634 0.2541 114.963C0.610284 115.343 4.05808 116.34 8.64016 112.088C13.2222 107.836 16.8471 99.5657 16.8471 99.5657C16.8471 99.5657 8.31081 102.58 3.72805 106.832H3.72873Z" fill="#2479CB"/>
<path id="Vector_2" d="M9.14458 122.616C2.99891 121.427 1.79084 117.992 1.8767 117.552C1.97665 117.041 4.37266 114.377 10.5183 115.566C16.6647 116.755 24.1345 121.858 24.1345 121.858C24.1345 121.858 15.2916 123.805 9.14458 122.616V122.616Z" fill="#2479CB"/>
<path id="Vector_3" d="M17.3972 101.75C14.6074 106.964 16.4212 109.898 16.7975 110.098C17.2342 110.33 20.6303 110.164 23.4201 104.951C26.2105 99.7368 26.9014 91.2171 26.9014 91.2171C26.9014 91.2171 20.1876 96.5351 17.3965 101.749L17.3972 101.75Z" fill="#2479CB"/>
<path id="Vector_4" d="M27.1255 114.225C21.2535 115.046 19.111 112.341 19.0513 111.919C18.9829 111.431 20.3057 108.309 26.1776 107.489C32.0496 106.668 40.317 108.947 40.317 108.947C40.317 108.947 32.9981 113.403 27.1255 114.224V114.225Z" fill="#2479CB"/>
<path id="Vector_5" d="M28.4415 93.9931C27.2502 99.3131 29.5899 101.477 29.9736 101.563C30.419 101.661 33.3972 100.68 34.5885 95.3593C35.7798 90.038 34.2874 82.2937 34.2874 82.2937C34.2874 82.2937 29.6335 88.6711 28.4415 93.9931Z" fill="#2479CB"/>
<path id="Vector_6" d="M40.1761 102.695C35.158 104.866 32.5842 102.988 32.4273 102.628C32.2455 102.21 32.6493 99.1105 37.6674 96.9382C42.6848 94.7671 50.5993 94.7624 50.5993 94.7624C50.5993 94.7624 45.1942 100.522 40.1754 102.695H40.1761Z" fill="#2479CB"/>
<path id="Vector_7" d="M36.6485 84.1539C36.5599 89.1664 39.0687 90.6871 39.4302 90.6931C39.8501 90.6998 42.3514 89.2673 42.4407 84.2548C42.5285 79.241 39.7508 72.5373 39.7508 72.5373C39.7508 72.5373 36.7377 79.1394 36.6485 84.1539Z" fill="#2479CB"/>
<path id="Vector_8" d="M48.8332 89.8382C44.7133 92.7171 42.0462 91.4972 41.8383 91.2017C41.5975 90.8588 41.3875 87.9913 45.5068 85.1117C49.626 82.2328 56.7571 80.7743 56.7571 80.7743C56.7571 80.7743 52.9531 86.9579 48.8325 89.8375L48.8332 89.8382Z" fill="#2479CB"/>
<path id="Vector_9" d="M41.7954 74.6703C43.1014 79.1815 45.7664 79.8546 46.0917 79.761C46.4687 79.652 48.3127 77.6842 47.008 73.1717C45.7013 68.6605 41.3634 63.4214 41.3634 63.4214C41.3634 63.4214 40.49 70.1578 41.7954 74.6703Z" fill="#2479CB"/>
<path id="Vector_10" d="M54.2718 76.4155C51.3801 80.1226 48.6554 79.763 48.3878 79.5551C48.0772 79.3138 47.0979 76.8052 49.9896 73.0975C52.8813 69.3904 58.8613 66.1285 58.8613 66.1285C58.8613 66.1285 57.1649 72.7071 54.2718 76.4149V76.4155Z" fill="#2479CB"/>
<path id="Vector_11" d="M43.6903 63.9354C45.6678 68.0155 48.3126 68.2233 48.6064 68.0823C48.9479 67.9172 50.3807 65.7468 48.4039 61.6668C46.4257 57.5867 41.4452 53.3061 41.4452 53.3061C41.4452 53.3061 41.7129 59.8553 43.6903 63.9354Z" fill="#2479CB"/>
<path id="Vector_12" d="M55.8415 63.5765C53.695 67.5703 51.0454 67.6692 50.757 67.5148C50.4229 67.3357 49.0814 65.1078 51.2279 61.114C53.3743 57.1202 58.53 53.0495 58.53 53.0495C58.53 53.0495 57.9886 59.5813 55.8415 63.5765Z" fill="#2479CB"/>
<path id="Vector_13" d="M44.5744 53.7653C46.9711 56.9911 49.3081 56.7371 49.5402 56.566C49.8098 56.3662 50.6979 54.2412 48.3019 51.0154C45.9046 47.7896 40.8616 44.882 40.8616 44.882C40.8616 44.882 42.1784 50.5382 44.5751 53.7653H44.5744Z" fill="#2479CB"/>
<path id="Vector_14" d="M55.0922 51.4553C53.8855 55.284 51.5954 55.8067 51.3184 55.7191C50.9978 55.6182 49.4617 53.8997 50.6691 50.0703C51.8758 46.2416 55.6899 41.8507 55.6899 41.8507C55.6899 41.8507 56.3003 47.6252 55.0929 51.4553H55.0922Z" fill="#2479CB"/>
<path id="Vector_15" d="M42.7646 43.8272C45.3659 46.4755 47.4708 45.9495 47.6613 45.763C47.882 45.5464 48.4247 43.491 45.8241 40.8427C43.2214 38.1944 38.2403 36.1704 38.2403 36.1704C38.2403 36.1704 40.162 41.1776 42.764 43.8279L42.7646 43.8272Z" fill="#2479CB"/>
<path id="Vector_16" d="M52.0905 40.3888C51.4727 44.0438 49.4442 44.8091 49.1793 44.7643C48.8741 44.7129 47.2508 43.3339 47.8686 39.679C48.4864 36.0254 51.4184 31.5289 51.4184 31.5289C51.4184 31.5289 52.7089 36.7332 52.0905 40.3888Z" fill="#2479CB"/>
<path id="Vector_17" d="M39.6757 34.7306C42.3018 36.5935 44.017 35.8228 44.1511 35.635C44.3061 35.4164 44.4537 33.5803 41.8276 31.7174C39.2001 29.8551 34.6395 28.8886 34.6395 28.8886C34.6395 28.8886 37.0489 32.8671 39.6757 34.7306Z" fill="#2479CB"/>
<path id="Vector_18" d="M47.1039 30.3745C47.1388 33.5863 45.5262 34.5488 45.2928 34.5515C45.0245 34.5535 43.428 33.6251 43.3925 30.4126C43.3583 27.2015 45.168 22.9176 45.168 22.9176C45.168 22.9176 47.069 27.1607 47.1032 30.3738L47.1039 30.3745Z" fill="#2479CB"/>
<path id="Vector_19" d="M35.9254 26.866C38.524 28.1975 39.9628 27.2837 40.0581 27.0979C40.1687 26.8813 40.0614 25.2149 37.4628 23.8834C34.8629 22.5526 30.645 22.2759 30.645 22.2759C30.645 22.2759 33.3255 25.5338 35.9247 26.866H35.9254Z" fill="#2479CB"/>
<path id="Vector_20" d="M42.0221 21.9958C42.4715 24.8727 41.1501 25.9455 40.9421 25.9783C40.7013 26.0151 39.1478 25.3881 38.6977 22.5105C38.2483 19.6343 39.3142 15.5562 39.3142 15.5562C39.3142 15.5562 41.5727 19.1169 42.0221 21.9958Z" fill="#2479CB"/>
<path id="Vector_21" d="M31.1267 20.683C33.6776 21.5152 34.8501 20.4792 34.9098 20.2974C34.9789 20.0848 34.6395 18.5889 32.0885 17.7553C29.5369 16.9238 25.6705 17.2814 25.6705 17.2814C25.6705 17.2814 28.575 19.8495 31.1273 20.6824L31.1267 20.683Z" fill="#2479CB"/>
<path id="Vector_22" d="M35.9489 15.3851C36.7753 17.9305 35.7322 19.0935 35.5477 19.1537C35.3351 19.2219 33.8346 18.8776 33.0082 16.3323C32.1818 13.7882 32.5561 9.93478 32.5561 9.93478C32.5561 9.93478 35.1225 12.8391 35.9482 15.3851H35.9489Z" fill="#2479CB"/>
<path id="Vector_23" d="M25.8288 15.1037C28.1283 15.5155 29.0137 14.4814 29.0432 14.317C29.0768 14.1258 28.6032 12.8765 26.3038 12.4641C24.003 12.0537 20.7128 12.8264 20.7128 12.8264C20.7128 12.8264 23.5274 14.692 25.8282 15.1037H25.8288Z" fill="#2479CB"/>
<path id="Vector_24" d="M29.3457 9.95751C30.366 12.0523 29.6073 13.1806 29.4551 13.2542C29.28 13.3384 27.9445 13.2221 26.9249 11.1266C25.9046 9.03174 25.7624 5.66556 25.7624 5.66556C25.7624 5.66556 28.3262 7.86133 29.3457 9.95751Z" fill="#2479CB"/>
<path id="Vector_25" d="M19.2069 10.011C21.1669 10.1861 21.8323 9.25366 21.8451 9.11329C21.8592 8.95019 21.3688 7.93753 19.4088 7.76174C17.4481 7.58728 14.7456 8.47896 14.7456 8.47896C14.7456 8.47896 17.2456 9.83586 19.2069 10.011Z" fill="#2479CB"/>
<path id="Vector_26" d="M21.774 5.43362C22.7855 7.11537 22.2335 8.11801 22.1121 8.19086C21.9712 8.27442 20.8423 8.27575 19.8307 6.59333C18.8192 4.91158 18.4489 2.09751 18.4489 2.09751C18.4489 2.09751 20.7631 3.74986 21.7747 5.43295L21.774 5.43362Z" fill="#2479CB"/>
<path id="Vector_27" d="M13.2095 6.76445C14.9575 6.52916 15.3526 5.58134 15.3352 5.45634C15.3151 5.31129 14.6845 4.52322 12.9365 4.75851C11.1884 4.99513 9.00439 6.30992 9.00439 6.30992C9.00439 6.30992 11.4608 6.99973 13.2095 6.76445Z" fill="#2479CB"/>
<path id="Vector_28" d="M14.539 2.25526C15.7591 3.5246 15.4767 4.51052 15.3848 4.59809C15.2788 4.69969 14.2921 4.92428 13.072 3.65494C11.8518 2.38627 10.9664 0 10.9664 0C10.9664 0 13.3188 0.985257 14.5383 2.25526H14.539Z" fill="#2479CB"/>
<path id="Vector_29" d="M10.0267 1.78135C11.3474 2.42036 11.4132 3.2706 11.3675 3.36618C11.3139 3.4758 10.6096 3.93568 9.28813 3.29667C7.96737 2.65832 6.58356 1.05143 6.58356 1.05143C6.58356 1.05143 8.7059 1.14167 10.0273 1.78135H10.0267Z" fill="#2479CB"/>
</g>
</svg>
